<?xml version="1.0" encoding="utf-8"?>
<!-- Generator: Adobe Illustrator 19.1.0, SVG Export Plug-In . SVG Version: 6.00 Build 0)  -->
<svg version="1.1" id="Layer_1" xmlns="http://www.w3.org/2000/svg" xmlns:xlink="http://www.w3.org/1999/xlink" x="0px" y="0px"
	 viewBox="0 0 297.3 320.2" enable-background="new 0 0 297.3 320.2" xml:space="preserve">
<g>
	<path fill="#2F3030" d="M102.8,197.8v-33.3h85.3v33.2l-21.2-30h-0.2v70.6h-42.4v-70.6H124L102.8,197.8z"/>
	<path fill="#2F3030" d="M0,73.9V0h41.9v42l25.9-22.1l38,54H61.2L41.9,43.5h-0.2v30.4H0z M67.8,19.9L54.1,0h36l0.1,0.8L67.8,19.9z"
		/>
	<g>
		<path fill="#2F3030" d="M128.3,82.7l39.7,32.5c3.8,3,6.4,6,8.1,8.9c1.7,3,2.5,6.3,2.5,9.9c0,4.5-1.2,8.6-3.8,12.2
			c-2.5,3.6-5.9,6.3-10.2,8.1c-1.2,0.5-2.2,0.8-3,1c-1.2,0.3-2.4,0.5-3.6,0.6c-1.3,0.1-3,0.2-4.9,0.3c-5.1-3.5-8.7-6-10.8-7.5
			s-4.6-3.3-7.5-5.4c-4.7-3.5-9.3-7.1-13.7-10.8c-4.3-3.6-7.7-6.7-10.3-9.5c-2.5-2.7-4.3-5-5.3-7c-0.8-1.7-1.5-3.5-2-5.4
			c-0.5-2-0.8-3.8-0.8-5.5c0-4.8,1.2-8.9,3.7-12.4c2.4-3.5,5.9-6.2,10.3-8c1.7-0.7,3.4-1.1,5.1-1.4
			C123.5,82.9,125.6,82.7,128.3,82.7z M103.2,156.2v-30.9l39.4,30.9H103.2z M174.2,112.2l-36.5-30h36.5V112.2z"/>
		<path fill="#2F3030" d="M42.3,81.8v74.8h-5.7c-6.7,0-12.8-1.7-18.4-5.1c-5.6-3.3-10-7.9-13.4-13.7C1.6,132,0,125.8,0,119.1
			c0-5.3,1-10.2,2.9-14.9c2-4.7,4.7-8.6,8.1-11.9c3.6-3.4,7.7-6,12.5-7.8c4.9-1.8,10-2.8,15.5-2.8H42.3z M48.7,156.6V81.8h3.8
			c5.3,0,10.4,0.9,15.1,2.8c4.8,2,9,4.6,12.4,7.9c3.5,3.4,6.2,7.3,8.2,11.9s3,9.4,3,14.6c0,5.3-1,10.2-2.9,14.7
			c-2,4.7-4.7,8.7-8.1,12c-3.5,3.5-7.6,6.2-12.3,8c-4.7,1.9-9.7,2.8-15.1,2.8H48.7z"/>
	</g>
	<path fill="#2F3030" d="M197.3,320.2v-37.7l23.9,37.7H197.3z M197.4,271v-24.8h33.1l22.1,35.2l-24.4,38.2L197.4,271z M255.4,277.1
		l19.6-30.8h22.4v73.9h-42V277.1z"/>
	<g>
		<g>
			<polygon fill="#2F3030" points="230.1,209.4 197.3,164 197.3,237.9 230.1,237.9 			"/>
			<polygon fill="#2F3030" points="264.5,209.4 264.5,237.9 297.3,237.9 297.3,164 			"/>
		</g>
		<g>
			<g>
				<polygon fill="#00D995" points="267.1,186 245.4,173.4 267.1,160.9 				"/>
				<polygon fill="#00D995" points="227.5,160.9 249.2,173.4 227.5,186 				"/>
			</g>
		</g>
		<g>
			<circle fill="#2F3030" cx="247.3" cy="199.7" r="3.7"/>
			<circle fill="#2F3030" cx="247.3" cy="215.7" r="3.7"/>
		</g>
	</g>
</g>
</svg>
